<mxfile host="app.diagrams.net" modified="2021-11-15T00:40:47.834Z" agent="5.0 (Windows)" etag="C8Ls3Rig3MYkk0HgY2gY" version="15.7.1" type="github">
  <diagram name="Page-1" id="90a13364-a465-7bf4-72fc-28e22215d7a0">
    <mxGraphModel dx="1422" dy="780" grid="1" gridSize="10" guides="1" tooltips="1" connect="1" arrows="1" fold="1" page="1" pageScale="1.5" pageWidth="1169" pageHeight="826" background="none" math="0" shadow="0">
      <root>
        <mxCell id="0" style=";html=1;" />
        <mxCell id="1" style=";html=1;" parent="0" />
        <mxCell id="3a17f1ce550125da-1" value="Software Control" style="whiteSpace=wrap;html=1;shadow=1;fontSize=20;fillColor=#f5f5f5;strokeColor=#666666;strokeWidth=2;dashed=1;" parent="1" vertex="1">
          <mxGeometry x="535" y="260" width="150" height="60" as="geometry" />
        </mxCell>
        <mxCell id="d94RYf1Eqxd7llpjm9vU-21" style="edgeStyle=orthogonalEdgeStyle;rounded=0;orthogonalLoop=1;jettySize=auto;html=1;exitX=1;exitY=0.25;exitDx=0;exitDy=0;entryX=0;entryY=0.5;entryDx=0;entryDy=0;fontSize=20;" edge="1" parent="1" source="3a17f1ce550125da-2" target="d94RYf1Eqxd7llpjm9vU-20">
          <mxGeometry relative="1" as="geometry" />
        </mxCell>
        <mxCell id="3a17f1ce550125da-2" value="&lt;div&gt;Raspberry Pi 4&lt;/div&gt;" style="whiteSpace=wrap;html=1;shadow=1;fontSize=18;fillColor=#f5f5f5;strokeColor=#666666;" parent="1" vertex="1">
          <mxGeometry x="525" y="400" width="170" height="390" as="geometry" />
        </mxCell>
        <mxCell id="3a17f1ce550125da-4" value="1602 LCD Screen" style="whiteSpace=wrap;html=1;shadow=1;fontSize=18;fillColor=#f5f5f5;strokeColor=#666666;" parent="1" vertex="1">
          <mxGeometry x="1263" y="390" width="120" height="60" as="geometry" />
        </mxCell>
        <mxCell id="3a17f1ce550125da-5" value="smtp Email" style="whiteSpace=wrap;html=1;shadow=1;fontSize=18;fillColor=#f5f5f5;strokeColor=#666666;" parent="1" vertex="1">
          <mxGeometry x="788" y="340" width="120" height="60" as="geometry" />
        </mxCell>
        <mxCell id="3a17f1ce550125da-6" value="Bluetooth Speaker" style="whiteSpace=wrap;html=1;shadow=1;fontSize=18;fillColor=#f5f5f5;strokeColor=#666666;" parent="1" vertex="1">
          <mxGeometry x="878" y="250" width="120" height="60" as="geometry" />
        </mxCell>
        <mxCell id="3a17f1ce550125da-20" style="edgeStyle=elbowEdgeStyle;rounded=0;html=1;startArrow=none;startFill=0;jettySize=auto;orthogonalLoop=1;fontSize=18;elbow=vertical;" parent="1" source="3a17f1ce550125da-8" edge="1">
          <mxGeometry relative="1" as="geometry">
            <Array as="points">
              <mxPoint x="495" y="454" />
            </Array>
            <mxPoint x="525" y="454" as="targetPoint" />
          </mxGeometry>
        </mxCell>
        <mxCell id="3a17f1ce550125da-8" value="5V Power" style="whiteSpace=wrap;html=1;shadow=1;fontSize=18;fillColor=#f5f5f5;strokeColor=#666666;" parent="1" vertex="1">
          <mxGeometry x="335" y="420" width="120" height="60" as="geometry" />
        </mxCell>
        <mxCell id="3a17f1ce550125da-21" style="edgeStyle=elbowEdgeStyle;rounded=0;html=1;startArrow=none;startFill=0;jettySize=auto;orthogonalLoop=1;fontSize=18;elbow=vertical;" parent="1" source="3a17f1ce550125da-9" edge="1">
          <mxGeometry relative="1" as="geometry">
            <mxPoint x="525" y="531" as="targetPoint" />
          </mxGeometry>
        </mxCell>
        <mxCell id="3a17f1ce550125da-9" value="DHT22 Temperature and Humidity Sensor" style="whiteSpace=wrap;html=1;shadow=1;fontSize=18;fillColor=#f5f5f5;strokeColor=#666666;" parent="1" vertex="1">
          <mxGeometry x="335" y="488" width="120" height="86" as="geometry" />
        </mxCell>
        <mxCell id="d94RYf1Eqxd7llpjm9vU-2" style="edgeStyle=elbowEdgeStyle;rounded=0;html=1;startArrow=none;startFill=0;jettySize=auto;orthogonalLoop=1;fontSize=18;elbow=vertical;" edge="1" parent="1" source="d94RYf1Eqxd7llpjm9vU-3">
          <mxGeometry relative="1" as="geometry">
            <mxPoint x="528" y="610" as="targetPoint" />
            <Array as="points">
              <mxPoint x="478" y="610" />
            </Array>
          </mxGeometry>
        </mxCell>
        <mxCell id="d94RYf1Eqxd7llpjm9vU-3" value="HC-SR04 Distance Sensor" style="whiteSpace=wrap;html=1;shadow=1;fontSize=18;fillColor=#f5f5f5;strokeColor=#666666;" vertex="1" parent="1">
          <mxGeometry x="335" y="581" width="120" height="69" as="geometry" />
        </mxCell>
        <mxCell id="d94RYf1Eqxd7llpjm9vU-4" style="edgeStyle=elbowEdgeStyle;rounded=0;html=1;startArrow=none;startFill=0;jettySize=auto;orthogonalLoop=1;fontSize=18;elbow=vertical;" edge="1" parent="1" source="d94RYf1Eqxd7llpjm9vU-5">
          <mxGeometry relative="1" as="geometry">
            <mxPoint x="525" y="692" as="targetPoint" />
          </mxGeometry>
        </mxCell>
        <mxCell id="d94RYf1Eqxd7llpjm9vU-5" value="Pi Camera" style="whiteSpace=wrap;html=1;shadow=1;fontSize=18;fillColor=#f5f5f5;strokeColor=#666666;" vertex="1" parent="1">
          <mxGeometry x="335" y="674" width="120" height="30" as="geometry" />
        </mxCell>
        <mxCell id="d94RYf1Eqxd7llpjm9vU-6" style="edgeStyle=elbowEdgeStyle;rounded=0;html=1;startArrow=none;startFill=0;jettySize=auto;orthogonalLoop=1;fontSize=18;elbow=vertical;" edge="1" parent="1" source="d94RYf1Eqxd7llpjm9vU-7">
          <mxGeometry relative="1" as="geometry">
            <mxPoint x="525" y="753" as="targetPoint" />
          </mxGeometry>
        </mxCell>
        <mxCell id="d94RYf1Eqxd7llpjm9vU-7" value="Membrane Keypad" style="whiteSpace=wrap;html=1;shadow=1;fontSize=18;fillColor=#f5f5f5;strokeColor=#666666;" vertex="1" parent="1">
          <mxGeometry x="335" y="730" width="120" height="40" as="geometry" />
        </mxCell>
        <mxCell id="d94RYf1Eqxd7llpjm9vU-19" style="edgeStyle=orthogonalEdgeStyle;rounded=0;orthogonalLoop=1;jettySize=auto;html=1;exitX=0.5;exitY=0;exitDx=0;exitDy=0;entryX=0.55;entryY=0.95;entryDx=0;entryDy=0;entryPerimeter=0;fontSize=20;" edge="1" parent="1" source="d94RYf1Eqxd7llpjm9vU-8" target="d94RYf1Eqxd7llpjm9vU-10">
          <mxGeometry relative="1" as="geometry" />
        </mxCell>
        <mxCell id="d94RYf1Eqxd7llpjm9vU-8" value="MariaDB" style="whiteSpace=wrap;html=1;shadow=1;fontSize=20;fillColor=#f5f5f5;strokeColor=#666666;strokeWidth=2;dashed=1;" vertex="1" parent="1">
          <mxGeometry x="1008" y="730" width="150" height="34" as="geometry" />
        </mxCell>
        <mxCell id="d94RYf1Eqxd7llpjm9vU-10" value="&lt;div style=&quot;font-size: 20px&quot;&gt;&lt;font style=&quot;font-size: 20px&quot;&gt;Google Cloud&lt;/font&gt;&lt;/div&gt;&lt;div style=&quot;font-size: 20px&quot;&gt;&lt;font style=&quot;font-size: 20px&quot;&gt;SQL&lt;/font&gt;&lt;/div&gt;" style="ellipse;shape=cloud;whiteSpace=wrap;html=1;strokeColor=#666666;fillColor=#F5F5F5;" vertex="1" parent="1">
          <mxGeometry x="1228" y="472" width="190" height="118" as="geometry" />
        </mxCell>
        <mxCell id="d94RYf1Eqxd7llpjm9vU-15" style="edgeStyle=orthogonalEdgeStyle;rounded=0;orthogonalLoop=1;jettySize=auto;html=1;exitX=1;exitY=0.5;exitDx=0;exitDy=0;fontSize=20;entryX=0;entryY=0.5;entryDx=0;entryDy=0;" edge="1" parent="1" source="d94RYf1Eqxd7llpjm9vU-11" target="3a17f1ce550125da-4">
          <mxGeometry relative="1" as="geometry">
            <mxPoint x="968" y="470" as="targetPoint" />
            <Array as="points">
              <mxPoint x="968" y="630" />
              <mxPoint x="968" y="420" />
            </Array>
          </mxGeometry>
        </mxCell>
        <mxCell id="d94RYf1Eqxd7llpjm9vU-16" style="edgeStyle=orthogonalEdgeStyle;rounded=0;orthogonalLoop=1;jettySize=auto;html=1;entryX=0.5;entryY=1;entryDx=0;entryDy=0;fontSize=20;" edge="1" parent="1" source="d94RYf1Eqxd7llpjm9vU-11" target="d94RYf1Eqxd7llpjm9vU-8">
          <mxGeometry relative="1" as="geometry" />
        </mxCell>
        <mxCell id="d94RYf1Eqxd7llpjm9vU-11" value="All&lt;br&gt;Sensor Data" style="whiteSpace=wrap;html=1;shadow=1;fontSize=20;fillColor=#f5f5f5;strokeColor=#666666;strokeWidth=2;dashed=1;" vertex="1" parent="1">
          <mxGeometry x="788" y="600" width="150" height="60" as="geometry" />
        </mxCell>
        <mxCell id="d94RYf1Eqxd7llpjm9vU-12" style="edgeStyle=elbowEdgeStyle;rounded=0;html=1;startArrow=none;startFill=0;jettySize=auto;orthogonalLoop=1;fontSize=18;elbow=vertical;entryX=0;entryY=0.5;entryDx=0;entryDy=0;" edge="1" parent="1" target="d94RYf1Eqxd7llpjm9vU-11">
          <mxGeometry relative="1" as="geometry">
            <mxPoint x="695" y="799.5" as="sourcePoint" />
            <mxPoint x="775" y="799.5" as="targetPoint" />
            <Array as="points">
              <mxPoint x="738" y="630" />
            </Array>
          </mxGeometry>
        </mxCell>
        <mxCell id="d94RYf1Eqxd7llpjm9vU-22" style="edgeStyle=orthogonalEdgeStyle;rounded=0;orthogonalLoop=1;jettySize=auto;html=1;exitX=0.5;exitY=0;exitDx=0;exitDy=0;entryX=0.5;entryY=1;entryDx=0;entryDy=0;fontSize=20;" edge="1" parent="1" source="d94RYf1Eqxd7llpjm9vU-20" target="3a17f1ce550125da-5">
          <mxGeometry relative="1" as="geometry" />
        </mxCell>
        <mxCell id="d94RYf1Eqxd7llpjm9vU-23" style="edgeStyle=orthogonalEdgeStyle;rounded=0;orthogonalLoop=1;jettySize=auto;html=1;exitX=1;exitY=0.5;exitDx=0;exitDy=0;entryX=0.392;entryY=1.033;entryDx=0;entryDy=0;entryPerimeter=0;fontSize=20;" edge="1" parent="1" source="d94RYf1Eqxd7llpjm9vU-20" target="3a17f1ce550125da-6">
          <mxGeometry relative="1" as="geometry" />
        </mxCell>
        <mxCell id="d94RYf1Eqxd7llpjm9vU-20" value="HC-SR04 Distance Sensor Output" style="whiteSpace=wrap;html=1;shadow=1;fontSize=18;fillColor=#f5f5f5;strokeColor=#666666;" vertex="1" parent="1">
          <mxGeometry x="768" y="488" width="120" height="69" as="geometry" />
        </mxCell>
      </root>
    </mxGraphModel>
  </diagram>
</mxfile>
